<svg width="34" height="122" viewBox="0 0 34 122" fill="none" xmlns="http://www.w3.org/2000/svg">
<g clip-path="url(#clip0_49_66)">
<path d="M22.9113 59.3413C24.0654 60.1049 19.3927 62.3664 21.9261 64.1874C22.3765 64.5104 26.3736 65.8614 27.5559 63.0126C28.907 59.7231 25.5854 57.5498 18.6326 56.2575C18.2949 56.1987 22.4046 56.2281 22.292 56.0519C22.1794 55.8757 22.1513 55.6701 22.2357 55.4645C22.3202 55.2589 22.4891 55.112 22.7142 54.9946C22.9394 54.8771 23.2772 54.8477 23.6713 54.8771C24.1217 54.9652 24.6565 55.1121 25.2758 55.3176C25.8951 55.5232 29.8641 57.8141 29.8359 62.1902C29.8078 66.6544 25.2195 68.9159 24.4876 69.1215C23.7839 69.3565 23.0802 69.4446 22.4046 69.4446C21.729 69.4446 21.1098 69.3271 20.5468 69.1215C19.9838 68.9159 19.5897 68.681 19.3645 68.4166C19.1393 68.1523 17 66.9188 18.126 62.3077C19.2519 57.9022 22.4328 59.0476 22.9113 59.3413Z" fill="#CB997E"/>
<path d="M10.3287 48.4157C10.3287 48.4157 24.9943 52.0869 25.5854 52.175C26.9929 52.3513 27.7529 52.3806 28.1189 51.1765C28.6818 49.473 26.0077 47.9458 26.0077 47.9458C21.8979 45.8899 21.5601 46.8297 21.7009 43.4522C21.729 42.9822 23.4461 44.4507 23.8402 44.5095C24.0372 44.5389 24.4876 44.6563 25.1351 44.8913C25.7825 45.0969 26.4862 45.42 27.1618 45.8311C27.8655 46.2423 28.4848 46.771 29.0196 47.3584C29.5545 47.9458 29.8359 48.6213 29.8359 49.3262C29.8359 50.7653 29.4419 51.9988 28.6818 52.968C27.9218 53.9372 26.9647 54.7302 25.8388 55.3176C24.7128 55.9344 23.418 56.5218 22.1794 56.5512C17.7037 56.7568 8.0486 53.9666 7.73896 53.7023C7.42932 53.4086 7.28857 53.0561 7.28857 52.5862C7.28857 52.175 7.54191 51.617 7.76711 50.8828C8.75232 47.7108 10.3287 48.4157 10.3287 48.4157ZM23.3054 14.9633C22.6861 14.6696 22.5172 14.2878 22.7424 13.7592C22.9676 13.2305 23.4743 13.0249 24.2061 13.1424C24.7128 13.2011 25.2476 13.348 25.8106 13.5536C26.3736 13.7591 29.6107 14.8165 29.6107 17.9591C29.6107 20.8079 26.0358 22.5995 25.4447 22.9519C24.8817 23.275 24.2343 23.5687 23.5306 23.7743C22.8268 24.0093 22.2076 24.1267 21.6164 24.1855C21.0534 24.2442 20.5749 24.2149 20.1808 24.1267C19.8149 24.0386 19.646 23.833 19.6741 23.5393C19.7304 23.2456 19.843 22.9226 19.9556 22.5408C20.0682 22.1883 20.209 21.8359 20.3497 21.4834C20.4905 21.131 20.6875 20.8373 20.8845 20.5436C21.0816 20.2499 21.3349 20.0443 21.5883 19.8975C21.8698 19.7506 22.2639 19.6331 22.7705 19.545L24.375 19.2807C24.9099 19.1926 25.4165 19.0751 25.8388 18.987C26.2892 18.8989 26.5425 18.7227 26.6551 18.5171C26.7114 18.3702 26.6832 18.1353 26.5144 17.8416C26.3736 17.5479 26.1203 17.2248 25.8388 16.9017C25.5291 16.5787 25.1632 16.2262 24.7128 15.8738C24.3469 15.5213 23.8683 15.1983 23.3054 14.9633Z" fill="#CB997E"/>
<path d="M13.9036 58.9595C13.7628 56.9036 13.5939 54.8771 13.3687 52.9093C13.1717 50.9415 13.2562 52.41 13.0591 50.824C12.8621 49.238 12.6932 47.9164 12.5524 46.8884C12.4117 45.8311 12.3272 45.185 12.3272 44.95C12.2991 44.4801 12.3835 43.9514 12.5524 43.3347C12.7213 42.7179 12.9184 42.1599 13.1436 41.6606C13.3687 41.1319 13.6502 40.7208 13.9036 40.3977C14.1851 40.0746 14.4384 39.9571 14.6917 40.0746C14.8325 40.1627 14.9169 40.662 14.9732 41.6312C15.0295 42.6004 15.0858 43.8633 15.114 45.4199C15.1703 47.0059 15.1984 48.8269 15.2547 50.9121C15.311 52.9974 14.7762 47.4465 15.114 54.2603C15.4799 61.0448 13.9036 58.9595 13.9036 58.9595ZM18.4356 77.4626C18.4356 76.9339 18.5763 76.4052 18.8297 75.906C19.083 75.4067 19.4489 75.0836 19.8993 74.9367C20.1245 73.8794 20.603 73.0864 21.3068 72.5284C22.0105 71.9704 22.8268 71.6767 23.6994 71.5886C23.812 70.59 22.7705 68.7103 20.6875 68.7103C20.2371 68.7103 22.0105 68.1817 23.3054 68.3579C23.6431 68.4166 26.1484 69.3565 26.4299 72.1172C26.4862 72.6165 26.9366 72.8221 27.4433 73.0571C27.8092 73.2333 29.7796 74.5549 29.7796 77.8737C29.7796 79.9003 28.0062 81.3394 27.387 81.8681C26.7395 82.3967 26.0358 82.6904 25.2758 82.6904C24.5158 82.7492 23.7557 82.661 22.9676 82.4261C22.1794 82.1911 21.4194 81.8681 20.7719 81.3981C20.0964 80.9576 19.5615 80.3996 19.1111 79.724C18.6608 79.0779 18.4356 78.3437 18.4356 77.4626ZM27.8373 78.7548C28.2877 78.4024 28.2877 77.7856 27.8373 76.9633C27.387 76.1409 26.7114 75.3773 25.7825 74.6724C25.3602 75.3773 24.7691 76.0234 24.0091 76.6108C23.2772 77.1982 22.4046 77.6682 21.4194 77.9912C22.6861 78.7548 23.9246 79.2248 25.135 79.401C26.4017 79.5772 27.3025 79.3422 27.8373 78.7548ZM18.4356 41.3669C18.4356 40.8382 18.5763 40.3096 18.8297 39.8103C19.083 39.311 19.4489 38.9879 19.8993 38.8411C20.1245 37.7838 20.603 36.9908 21.3068 36.4327C22.0105 35.8747 22.8268 35.581 23.6994 35.4929C23.812 34.4943 22.7705 32.6146 20.6875 32.6146C20.2371 32.6146 22.0105 32.086 23.3054 32.2622C23.6431 32.321 26.1484 33.2608 26.4299 36.0216C26.4862 36.5209 26.9366 36.7264 27.4433 36.9614C27.8092 37.1376 29.7796 38.4593 29.7796 41.7781C29.7796 43.8046 28.0062 45.2437 27.387 45.7724C26.7395 46.301 26.0358 46.5947 25.2758 46.5947C24.5158 46.6535 23.7557 46.5654 22.9676 46.3304C22.1794 46.0955 21.4194 45.7724 20.7719 45.3025C20.0964 44.8619 19.5615 44.3039 19.1111 43.6284C18.6608 42.9822 18.4356 42.2186 18.4356 41.3669ZM27.8373 42.6298C28.2877 42.2774 28.2877 41.6606 27.8373 40.8382C27.387 40.0159 26.7114 39.2523 25.7825 38.5474C25.3602 39.2523 24.7691 39.8984 24.0091 40.4858C23.2772 41.0732 22.4046 41.5431 21.4194 41.8662C22.6861 42.6298 23.9246 43.0997 25.135 43.2759C26.4017 43.4522 27.3025 43.2466 27.8373 42.6298Z" fill="#CB997E"/>
<path d="M22.7987 22.4526C22.6017 22.7757 19.4771 24.2148 20.209 24.0974C21.4194 23.9211 28.0626 27.005 26.9366 29.3252C25.7543 31.7336 22.0387 30.8231 21.8416 30.6762C20.8846 30.0595 16.1274 25.9477 6.66931 24.2442C5.74039 24.068 2.10917 23.6862 1.46174 27.6218C0.786162 31.851 2.84104 32.7909 3.71366 33.2021C7.28858 34.8468 20.0119 34.2887 25.3603 32.879C26.5707 32.5559 29.6108 30.8818 29.6108 28.6497C29.6108 25.0666 26.1203 23.2456 25.5573 22.9813C24.9943 22.6876 24.4595 22.4527 23.8965 22.2177C23.3898 22.0708 22.9957 22.1296 22.7987 22.4526ZM11.1731 30.177C10.1879 30.1182 9.20272 30.0595 8.24565 30.0007C7.28858 29.942 6.44411 29.8245 5.68409 29.6777C4.92407 29.5308 4.33294 29.3252 3.88255 29.0609C3.43217 28.7966 3.23513 28.4735 3.26328 28.0917C3.31957 27.5043 3.68551 27.1225 4.38924 26.9169C5.09296 26.7113 5.96558 26.6526 7.03524 26.7113C8.07676 26.77 9.23087 26.9463 10.4976 27.24C11.7643 27.5337 12.9747 27.8274 14.1569 28.1504C15.9022 28.6203 18.0415 29.707 18.4356 29.942C14.8325 30.0888 13.0591 30.2357 11.1731 30.177Z" fill="#CB997E"/>
<path d="M22.8551 -0.338381C22.8269 -0.191532 22.8551 -0.0446819 22.9395 0.102168C23.024 0.249018 23.1365 0.395857 23.2773 0.513336C23.7558 0.777666 24.0373 1.13012 24.1781 1.57067C24.2907 2.01121 24.2625 2.56924 24.0936 3.27412C23.6995 3.27412 23.2773 3.36222 22.8832 3.50907C22.4891 3.65592 22.1232 3.89089 21.8135 4.21396C21.4476 4.53703 21.1661 5.00695 20.9972 5.59435C20.8283 6.18175 20.7439 6.68104 20.7439 7.06285C20.772 7.47403 20.8846 7.79709 21.1098 8.06142C21.3069 8.32575 21.5602 8.50197 21.8698 8.56071C22.1795 8.61945 22.5173 8.59008 22.8832 8.4726C23.2491 8.35512 23.6432 8.12017 24.0092 7.7971C24.3188 7.82647 24.6847 7.8852 25.1351 7.97331C25.5855 8.06142 25.9796 8.1789 26.3455 8.32575C26.7115 8.4726 27.0211 8.67818 27.2745 8.88377C27.4996 9.08936 27.5559 9.32433 27.387 9.6474C27.2182 9.9411 26.9085 10.1761 26.4863 10.3229C26.064 10.4698 25.6137 10.5872 25.1351 10.6753C24.6003 10.7635 24.0092 10.8222 23.418 10.8222C22.4891 10.1467 21.4476 9.50055 20.2653 8.85441C19.0831 8.20827 17.8445 7.62087 16.5215 7.09221C15.2267 6.56355 13.9037 6.09364 12.6088 5.68246C11.314 5.27128 10.0754 4.97757 8.92129 4.77198C7.76718 4.56639 6.72567 4.47828 5.79675 4.53702C4.86784 4.59576 4.13596 4.80136 3.57298 5.18317C3.09445 5.50623 2.67221 6.0349 2.33442 6.71041C1.96849 7.38591 1.71514 8.12017 1.5181 8.82505C1.32106 9.55929 1.20846 10.2348 1.18031 10.8809C1.15216 11.5271 1.20846 11.997 1.32106 12.2613C1.687 13.1718 2.47517 13.8767 3.68558 14.4347C4.89598 14.9927 6.30344 15.3745 7.90793 15.6095C9.51242 15.8445 11.2295 15.9913 13.0592 16.0207C14.8889 16.05 16.6341 15.9913 18.2386 15.8151C19.8713 15.6682 21.2787 15.4626 22.5173 15.1983C23.7277 14.934 24.5721 14.6697 25.0225 14.3466C25.5855 13.9354 29.639 11.2921 29.639 7.62087C29.639 4.18458 25.67 3.12727 25.5574 3.94962C25.9514 1.01263 22.8832 -0.485231 22.8551 -0.338381ZM11.3421 11.3215C10.3569 11.2627 9.37168 11.204 8.41461 11.1453C7.45755 11.0865 6.61307 10.9397 5.85305 10.7928C5.09303 10.6166 4.5019 10.3816 4.05151 10.088C3.60113 9.79425 3.40409 9.4418 3.43223 9.03062C3.48853 8.38448 3.85447 7.94394 4.5582 7.73835C5.26192 7.53276 6.13454 7.44465 7.2042 7.53276C8.24572 7.5915 9.39983 7.79709 10.6665 8.12016C11.9332 8.44323 13.1436 8.76631 14.3259 9.11875C15.5082 9.47118 16.5497 9.85298 17.4786 10.2642C18.4075 10.6753 19.0831 11.0278 19.4772 11.2921C16.4089 11.3802 13.7066 11.4096 11.3421 11.3215ZM23.1084 5.82931C23.024 5.94679 22.9114 6.06426 22.8269 6.15237C22.7425 6.26985 22.6299 6.35797 22.5454 6.41671C22.461 6.50482 22.3765 6.53419 22.3202 6.56356C22.2358 6.59293 22.1795 6.59292 22.1513 6.53418C22.095 6.47544 22.0669 6.38734 22.1232 6.26986C22.1795 6.15238 22.2358 6.03489 22.3484 5.91741C22.461 5.79993 22.5736 5.68245 22.7143 5.56497C22.8551 5.44749 23.024 5.33001 23.1647 5.21253C23.3054 5.09505 23.4462 5.00695 23.5588 4.94821C23.6995 4.88947 23.784 4.83073 23.8403 4.80136C23.5869 5.21254 23.3336 5.53561 23.1084 5.82931ZM14.3259 19.7507C15.4519 19.7507 16.3808 20.6611 16.3808 21.8066C16.3808 22.952 15.4519 23.8625 14.3259 23.8625C13.1999 23.8625 12.271 22.952 12.271 21.8066C12.271 20.6611 13.1718 19.7507 14.3259 19.7507ZM17.1408 116.848C17.1408 116.848 17.2253 116.877 17.3941 116.965C17.563 117.053 17.7882 117.141 18.0697 117.259C18.6609 117.494 19.5335 117.817 20.575 117.964C21.1098 118.023 21.6728 118.081 22.2639 118.052C22.5736 118.052 22.8832 118.023 23.1928 117.964C23.3617 117.934 23.5025 117.934 23.5588 117.905C23.6714 117.876 23.784 117.846 23.9247 117.788C24.9099 117.435 26.0922 116.348 27.1337 114.851C28.1752 113.353 29.1604 111.473 30.1175 109.417C31.0464 107.361 31.9472 105.012 32.3131 102.456C32.482 101.164 32.5102 99.8425 32.3413 98.5209C32.2568 97.8747 32.1161 97.1992 31.9472 96.5531C31.7501 95.9069 31.525 95.2902 31.2435 94.6734C30.6805 93.4692 29.8923 92.3825 28.9634 91.4721C28.0345 90.591 26.9367 89.8861 25.7826 89.3574C25.2196 89.0931 24.6284 88.8875 24.0373 88.6819C23.4462 88.5057 22.8551 88.3589 22.1513 88.1826C21.9824 88.1533 21.8135 88.0945 21.6447 88.0652L21.1661 87.9477C20.8565 87.8889 20.5468 87.8008 20.2372 87.7421C19.9276 87.6834 19.5898 87.5952 19.2801 87.5365L18.3512 87.3603C15.846 86.9197 13.397 86.8316 11.314 87.2428C10.2724 87.4484 9.34353 87.8008 8.55536 88.2414C8.16127 88.4763 7.79533 88.7407 7.4294 89.005C7.09161 89.2987 6.75382 89.5924 6.47233 89.9448C5.29007 91.3252 4.47375 93.1755 3.96707 95.0258C3.46038 96.9055 3.17889 98.7558 3.01 100.43C2.84111 102.104 2.78481 103.602 2.75666 104.865C2.72851 106.098 2.72851 107.097 2.72851 107.772L2.72851 109.065L2.39072 109.153L2.27813 108.918C2.27813 108.918 2.10923 108.595 1.85589 107.949C1.60255 107.302 1.23661 106.363 0.898823 105.1C0.532886 103.866 0.195097 102.31 -0.0582439 100.489C-0.283436 98.6677 -0.424182 96.5531 -0.142692 94.1741C-0.00194673 92.9993 0.223246 91.7364 0.67363 90.4441C0.786226 90.1211 0.898823 89.798 1.03957 89.4749C1.18031 89.1518 1.32106 88.8288 1.48995 88.5057C1.79959 87.8596 2.19368 87.2134 2.64406 86.626C3.09445 86.0093 3.62928 85.4512 4.19226 84.8932C4.78339 84.3645 5.43082 83.8946 6.10639 83.5128C6.81012 83.131 7.51384 82.7786 8.27387 82.573C8.6398 82.4261 9.03389 82.3674 9.39983 82.2499C9.76577 82.1618 10.1599 82.1031 10.5258 82.0443C12.0458 81.8387 13.5377 81.8681 15.0015 82.0443C16.4652 82.2205 17.9008 82.5436 19.2801 82.9254C19.6179 83.0429 19.9839 83.131 20.3216 83.2485L21.335 83.6009C21.6728 83.7184 22.0106 83.8653 22.3484 84.0121L22.8551 84.2177C23.0239 84.2764 23.1647 84.3645 23.3336 84.4233L24.3188 84.8638L25.3322 85.3925C26.0077 85.7743 26.6552 86.1855 27.2463 86.6848C28.4567 87.6246 29.5545 88.77 30.4271 90.0036C31.3279 91.2371 32.0316 92.5881 32.5665 93.9685C32.7072 94.321 32.8198 94.6734 32.9324 94.9965C33.045 95.3489 33.1576 95.7013 33.242 96.0538C33.4391 96.7587 33.608 97.4635 33.7206 98.1684C34.0021 99.5782 34.171 101.017 34.2554 102.427C34.4243 105.247 34.2836 108.066 33.6643 110.651C33.045 113.235 31.919 115.585 30.399 117.464C29.6671 118.434 28.8227 119.256 27.8937 119.961C26.9648 120.636 25.8952 121.194 24.741 121.429C24.4596 121.488 24.1781 121.518 23.8684 121.547C23.5306 121.576 23.2773 121.576 23.0521 121.518C22.8269 121.488 22.6017 121.459 22.3765 121.4C22.1513 121.371 21.9543 121.312 21.7291 121.253C20.8846 121.018 20.1809 120.695 19.5616 120.313C18.3512 119.55 17.6475 118.698 17.2534 118.081C17.1408 117.934 17.0564 117.788 17.0001 117.67C16.9156 117.553 16.8875 117.435 16.8312 117.376C16.7467 117.2 16.7186 117.112 16.7186 117.112L16.606 116.877L16.803 116.642L17.1408 116.848Z" fill="#CB997E"/>
<path d="M8.33016 100.019C13.594 101.105 18.8297 102.163 24.0936 103.249C25.8107 103.602 23.8121 99.8718 22.658 99.6075C17.3941 98.5208 12.1584 97.4635 6.89455 96.3768C5.14932 96.0538 7.1479 99.7837 8.33016 100.019Z" fill="#CB997E"/>
</g>
<defs>
<clipPath id="clip0_49_66">
<rect width="122" height="34" fill="white" transform="matrix(0 -1 1 0 0 122)"/>
</clipPath>
</defs>
</svg>
