<svg width="70" height="70" viewBox="0 0 70 70" fill="none" xmlns="http://www.w3.org/2000/svg">
<path d="M16.4719 4.90002H16.45C15.8594 4.90002 15.389 5.38127 15.389 5.9719C15.389 6.56252 15.8812 7.04377 16.4719 7.04377C17.0625 7.04377 17.5437 6.56252 17.5437 5.9719C17.5437 5.38127 17.0625 4.90002 16.4719 4.90002ZM21.339 4.90002H21.3172C20.7265 4.90002 20.2562 5.38127 20.2562 5.9719C20.2562 6.56252 20.7484 7.04377 21.339 7.04377C21.9297 7.04377 22.4109 6.56252 22.4109 5.9719C22.4109 5.38127 21.9297 4.90002 21.339 4.90002ZM26.2062 4.90002H26.1844C25.5937 4.90002 25.1234 5.38127 25.1234 5.9719C25.1234 6.56252 25.6156 7.04377 26.2062 7.04377C26.7969 7.04377 27.2781 6.56252 27.2781 5.9719C27.2781 5.38127 26.8078 4.90002 26.2062 4.90002ZM51.1328 5.43596H37.789C37.4937 5.43596 37.2531 5.67659 37.2531 5.9719C37.2531 6.26721 37.4937 6.50784 37.789 6.50784H51.1328C51.4281 6.50784 51.6687 6.26721 51.6687 5.9719C51.6687 5.67659 51.4281 5.43596 51.1328 5.43596Z" fill="#CB997E"/>
<path d="M66.675 6.61714H58.6906V3.41245C58.6906 2.09995 57.6297 1.02808 56.3062 1.02808H13.6828C12.3703 1.02808 11.2984 2.08901 11.2984 3.41245V6.61714H3.31406C1.49844 6.61714 0 8.11558 0 9.94214V56.4265C0 58.264 1.49844 59.7515 3.325 59.7515H26.7313C26.8078 60.8453 26.5125 64.1593 21.4594 67.9984C21.2734 68.1406 21.1969 68.3812 21.2734 68.6C21.35 68.8187 21.5578 68.9609 21.7875 68.9609H48.2125C48.4531 68.9609 48.65 68.8078 48.7266 68.6C48.7922 68.3812 48.7266 68.1406 48.5297 67.9984C43.4875 64.1484 43.1812 60.8562 43.2578 59.7515H66.675C68.5016 59.7515 70 58.264 70 56.4265V9.94214C70 8.11558 68.5016 6.61714 66.675 6.61714ZM12.3812 3.41245C12.3812 2.69058 12.9609 2.11089 13.6828 2.11089H56.3062C57.0281 2.11089 57.6078 2.69058 57.6078 3.41245V9.8437H12.3812V3.41245ZM12.3812 10.9156H57.6078V39.2328C57.6078 39.9437 57.0281 40.5234 56.3062 40.5234H13.6828C12.9609 40.5234 12.3812 39.9437 12.3812 39.2328V10.9156ZM68.9281 56.4265C68.9281 57.6625 67.9109 58.6796 66.675 58.6796H3.325C2.08906 58.6796 1.07187 57.6625 1.07187 56.4265V50.0718H68.9172V56.4265H68.9281ZM68.9281 49H1.07187V9.94214C1.07187 8.7062 2.08906 7.68901 3.325 7.68901H11.3094V39.2328C11.3094 40.5453 12.3703 41.6062 13.6938 41.6062H56.3172C57.6297 41.6062 58.7016 40.5562 58.7016 39.2328V7.69995H66.6859C67.9219 7.69995 68.9391 8.71714 68.9391 9.95308V49H68.9281Z" fill="#CB997E"/>
<path d="M17.6969 25.1891V35.35C17.6969 36.5751 18.7031 37.5704 19.9172 37.5704C21.1422 37.5704 22.1375 36.5751 22.1375 35.35V25.211C22.1812 24.325 22.6844 23.7344 22.6953 23.7235C23.614 22.6735 23.625 21.2735 23.625 21.2079V14.4266C23.625 14.1204 23.3844 13.8907 23.089 13.8907C22.7937 13.8907 22.5531 14.1313 22.5531 14.4266V18.6266H20.4531V14.4266C20.4531 14.1313 20.2125 13.8907 19.9172 13.8907C19.6219 13.8907 19.3812 14.1313 19.3812 14.4266V18.6266H17.2812V14.4266C17.2812 14.1204 17.0406 13.8907 16.7453 13.8907C16.45 13.8907 16.2094 14.1313 16.2094 14.4266V21.2079C16.2094 21.2735 16.2094 22.8266 17.15 23.7235C17.15 23.7454 17.6531 24.336 17.6969 25.1891ZM49.5906 37.5704C50.1594 37.5704 50.6953 37.3297 51.089 36.9141C51.45 36.4985 51.6359 35.9407 51.5812 35.4376L51.4937 29.6516H53.189C53.4844 29.6516 53.7031 29.4329 53.725 29.1594C53.7687 28.5797 54.6218 15.1047 48.2343 13.8907C48.0812 13.8688 47.9172 13.9016 47.7969 14.011C47.6765 14.1204 47.6 14.2735 47.6 14.4266V35.6016C47.6 36.6844 48.4969 37.5704 49.5906 37.5704ZM30.45 31.9922V37.0344C30.45 37.3407 30.7015 37.5704 30.9859 37.5704H39.539C39.8453 37.5704 40.075 37.3297 40.075 37.0344V31.9922C42.2078 31.8172 43.8812 30.0344 43.8812 27.8688C43.8812 25.4516 41.7703 23.5157 39.3312 23.7563C38.6531 22.3344 37.1984 21.4047 35.6015 21.4047C33.95 21.4047 32.4625 22.4 31.8172 23.8657C31.4672 23.7782 31.1281 23.7235 30.7672 23.7235C28.4812 23.7235 26.6328 25.5829 26.6328 27.8579C26.6437 30.0344 28.3281 31.8172 30.45 31.9922Z" fill="#CB997E"/>
</svg>
